HIERARCHY
ROOT Hips
{
	OFFSET 0.00000 0.00000 0.00000
	CHANNELS 6 Xposition Yposition Zposition Zrotation Yrotation Xrotation 
	JOINT LHipJoint
	{
		OFFSET 0 0 0
		CHANNELS 3 Zrotation Yrotation Xrotation
		JOINT LeftUpLeg
		{
			OFFSET 1.92384 -1.64427 0.83032
			CHANNELS 3 Zrotation Yrotation Xrotation
			JOINT LeftLeg
			{
				OFFSET 2.52872 -6.94761 0.00000
				CHANNELS 3 Zrotation Yrotation Xrotation
				JOINT LeftFoot
				{
					OFFSET 2.51827 -6.91890 0.00000
					CHANNELS 3 Zrotation Yrotation Xrotation
					JOINT LeftToeBase
					{
						OFFSET 0.22757 -0.62524 2.06528
						CHANNELS 3 Zrotation Yrotation Xrotation
						End Site
						{
							OFFSET 0.00000 -0.00000 1.08218
						}
					}
				}
			}
		}
	}
	JOINT RHipJoint
	{
		OFFSET 0 0 0
		CHANNELS 3 Zrotation Yrotation Xrotation
		JOINT RightUpLeg
		{
			OFFSET -2.09517 -1.64427 0.83032
			CHANNELS 3 Zrotation Yrotation Xrotation
			JOINT RightLeg
			{
				OFFSET -2.55173 -7.01082 0.00000
				CHANNELS 3 Zrotation Yrotation Xrotation
				JOINT RightFoot
				{
					OFFSET -2.50265 -6.87598 0.00000
					CHANNELS 3 Zrotation Yrotation Xrotation
					JOINT RightToeBase
					{
						OFFSET -0.22612 -0.62126 1.98677
						CHANNELS 3 Zrotation Yrotation Xrotation
						End Site
						{
							OFFSET -0.00000 -0.00000 1.04433
						}
					}
				}
			}
		}
	}
	JOINT LowerBack
	{
		OFFSET 0 0 0
		CHANNELS 3 Zrotation Yrotation Xrotation
		JOINT Spine
		{
			OFFSET 0.02839 1.68926 0.31690
			CHANNELS 3 Zrotation Yrotation Xrotation
			JOINT Spine1
			{
				OFFSET -0.01522 1.70183 0.21192
				CHANNELS 3 Zrotation Yrotation Xrotation
				JOINT Neck
				{
					OFFSET 0 0 0
					CHANNELS 3 Zrotation Yrotation Xrotation
					JOINT Neck1
					{
						OFFSET -0.04523 1.88988 0.10630
						CHANNELS 3 Zrotation Yrotation Xrotation
						JOINT Head
						{
							OFFSET 0.05172 1.78070 -0.56858
							CHANNELS 3 Zrotation Yrotation Xrotation
							End Site
							{
								OFFSET 0.01532 1.90392 -0.20434
							}
						}
					}
				}
				JOINT LeftShoulder
				{
					OFFSET 0 0 0
					CHANNELS 3 Zrotation Yrotation Xrotation
					JOINT LeftArm
					{
						OFFSET 3.25522 0.75486 0.22086
						CHANNELS 3 Zrotation Yrotation Xrotation
						JOINT LeftForeArm
						{
							OFFSET 4.85645 -0.00000 0.00000
							CHANNELS 3 Zrotation Yrotation Xrotation
							JOINT LeftHand
							{
								OFFSET 2.79874 -0.00000 0.00000
								CHANNELS 3 Zrotation Yrotation Xrotation
								JOINT LeftFingerBase
								{
									OFFSET 0 0 0
									CHANNELS 3 Zrotation Yrotation Xrotation
									JOINT LeftHandIndex1
									{
										OFFSET 0.57340 -0.00000 0.00000
										CHANNELS 3 Zrotation Yrotation Xrotation
										End Site
										{
											OFFSET 0.46229 -0.00000 0.00000
										}
									}
								}
								JOINT LThumb
								{
									OFFSET 0 0 0
									CHANNELS 3 Zrotation Yrotation Xrotation
									End Site
									{
										OFFSET 0.46935 -0.00000 0.46935
									}
								}
							}
						}
					}
				}
				JOINT RightShoulder
				{
					OFFSET 0 0 0
					CHANNELS 3 Zrotation Yrotation Xrotation
					JOINT RightArm
					{
						OFFSET -3.29079 0.52751 0.36356
						CHANNELS 3 Zrotation Yrotation Xrotation
						JOINT RightForeArm
						{
							OFFSET -4.67018 -0.00000 0.00000
							CHANNELS 3 Zrotation Yrotation Xrotation
							JOINT RightHand
							{
								OFFSET -2.65534 -0.00000 0.00000
								CHANNELS 3 Zrotation Yrotation Xrotation
								JOINT RightFingerBase
								{
									OFFSET 0 0 0
									CHANNELS 3 Zrotation Yrotation Xrotation
									JOINT RightHandIndex1
									{
										OFFSET -0.59407 -0.00000 0.00000
										CHANNELS 3 Zrotation Yrotation Xrotation
										End Site
										{
											OFFSET -0.47895 -0.00000 0.00000
										}
									}
								}
								JOINT RThumb
								{
									OFFSET 0 0 0
									CHANNELS 3 Zrotation Yrotation Xrotation
									End Site
									{
										OFFSET -0.48627 -0.00000 0.48627
									}
								}
							}
						}
					}
				}
			}
		}
	}
}
MOTION
Frames: 13
Frame Time: .0083333
-2.7363 16.8873 32.8856 361.7060 -7.4469 -330.1330 0.0000 0.0000 0.0000 -23.9842 -16.0638 -35.6110 2.6667 10.1349 29.4146 0.8264 5.5113 -20.0330 0.8980 -6.0394 -16.8989 0.0000 0.0000 0.0000 9.4785 21.5001 -56.9480 -3.5743 -11.5712 34.2315 0.0167 -13.1183 -18.4447 -0.0014 0.2388 -0.6561 -2.5226 -0.6275 -16.1821 0.5362 -0.6070 -13.1938 1.9168 -0.1277 -5.0473 -10.6112 -8.1272 -9.2799 7.5531 -13.6907 42.4115 2.8941 -6.4296 19.2015 0.0000 -0.0000 0.0000 -82.1406 3.4288 28.9985 29.8784 -40.7889 -11.3301 -0.0000 0.0000 -10.6353 16.9562 30.4384 8.7807 -7.1250 0.0000 -0.0000 9.3484 -29.0414 -176.3205 0.0000 -0.0000 0.0000 81.9876 -25.8765 28.8628 -18.6801 29.0192 -4.8747 0.0000 0.0000 9.0543 -10.6390 -12.4933 2.3270 7.1250 -0.0000 -0.0000 -16.4567 47.7921 178.8366
-2.7429 16.8935 32.9811 361.7960 -7.5948 -330.1310 0.0000 0.0000 0.0000 -24.3211 -15.7378 -35.0354 2.5751 9.9732 28.8901 0.8292 5.4818 -20.0399 0.9196 -6.1098 -17.1034 0.0000 0.0000 0.0000 8.8616 22.0840 -56.7355 -3.2267 -11.0533 32.4600 0.0656 -13.9456 -19.0452 -0.0003 0.1059 -0.2908 -2.5560 -0.6760 -16.2364 0.5449 -0.6685 -13.2300 1.9376 -0.1566 -5.0564 -10.7705 -8.2406 -9.2374 7.6713 -13.8675 42.1924 2.9356 -6.5157 19.1120 -0.0000 0.0000 0.0000 -82.2807 3.5729 29.1943 29.7965 -40.7183 -11.2766 -0.0000 0.0000 -10.5428 16.9060 30.2556 8.7067 -7.1250 0.0000 -0.0000 9.3781 -29.2335 -176.3519 -0.0000 0.0000 0.0000 82.1108 -25.9664 28.8837 -18.6498 28.9812 -4.8600 0.0000 0.0000 9.1035 -10.5247 -12.4259 2.2893 7.1250 -0.0000 -0.0000 -16.5920 47.8692 178.7942
-2.7507 16.8991 33.0771 361.8880 -7.7449 -330.1320 0.0000 0.0000 0.0000 -24.6477 -15.4288 -34.4445 2.4832 9.8072 28.3547 0.8295 5.4763 -20.0389 0.9436 -6.1868 -17.3274 0.0000 0.0000 0.0000 8.0615 22.8270 -56.4961 -2.9105 -10.5487 30.7726 0.1327 -15.0107 -19.8463 -0.0003 -0.1167 0.3207 -2.5925 -0.7268 -16.2948 0.5557 -0.7326 -13.2640 1.9621 -0.1867 -5.0608 -10.9281 -8.3528 -9.2061 7.7855 -14.0412 41.9822 2.9750 -6.6002 19.0319 0.0000 -0.0000 0.0000 -82.4374 3.7288 29.3661 29.6790 -40.6166 -11.2001 -0.0000 0.0000 -10.4100 16.8779 30.0065 8.6277 -7.1250 0.0000 -0.0000 9.3913 -29.4875 -176.4043 0.0000 -0.0000 0.0000 82.2245 -26.0463 28.9065 -18.6356 28.9634 -4.8531 0.0000 0.0000 9.1297 -10.4065 -12.3597 2.2512 7.1250 -0.0000 -0.0000 -16.7323 47.9442 178.7518
-2.7597 16.9037 33.1741 361.9840 -7.8943 -330.1390 0.0000 0.0000 0.0000 -24.9685 -15.1260 -33.8382 2.3920 9.6389 27.8152 0.8282 5.4811 -20.0295 0.9703 -6.2711 -17.5732 0.0000 0.0000 0.0000 7.0582 23.7419 -56.2401 -2.6276 -10.0662 29.1915 0.2220 -16.3252 -20.8722 -0.0048 -0.4456 1.2243 -2.6343 -0.7820 -16.3606 0.5700 -0.8015 -13.2936 1.9925 -0.2189 -5.0560 -11.0837 -8.4631 -9.1854 7.8949 -14.2104 41.7814 3.0122 -6.6827 18.9603 -0.0000 0.0000 0.0000 -82.6141 3.8901 29.5056 29.5236 -40.4816 -11.0991 -0.0000 0.0000 -10.2380 16.8399 29.7493 8.5414 -7.1250 0.0000 -0.0000 9.4112 -29.7507 -176.4563 -0.0000 0.0000 0.0000 82.3251 -26.1135 28.9355 -18.6346 28.9621 -4.8526 0.0000 0.0000 9.1324 -10.2887 -12.2878 2.2124 7.1250 -0.0000 -0.0000 -16.8740 48.0248 178.7062
-2.7700 16.9076 33.2720 362.0810 -8.0376 -330.1590 0.0000 0.0000 0.0000 -25.2779 -14.8397 -33.2093 2.3029 9.4704 27.2782 0.8260 5.5026 -20.0227 0.9979 -6.3571 -17.8241 0.0000 0.0000 0.0000 5.8394 24.8406 -55.9753 -2.3789 -9.6143 27.7365 0.3319 -17.8789 -22.1909 -0.0194 -0.8999 2.4734 -2.6766 -0.8405 -16.4237 0.5860 -0.8746 -13.3252 2.0245 -0.2530 -5.0544 -11.2356 -8.5684 -9.1572 7.9991 -14.3722 41.5902 3.0481 -6.7626 18.8916 -0.0000 -0.0000 0.0000 -82.8086 4.0704 29.6142 29.3329 -40.3147 -10.9755 -0.0000 0.0000 -10.0350 16.7635 29.5331 8.4456 -7.1250 0.0000 -0.0000 9.4600 -29.9819 -176.4903 -0.0000 -0.0000 0.0000 82.4170 -26.1813 28.9657 -18.6430 28.9727 -4.8567 0.0000 0.0000 9.1171 -10.1784 -12.2135 2.1752 7.1250 -0.0000 -0.0000 -17.0094 48.1073 178.6598
-2.7816 16.9100 33.3710 362.1760 -8.1770 -330.1850 0.0000 0.0000 0.0000 -25.5748 -14.5595 -32.5757 2.2181 9.3064 26.7585 0.8250 5.5249 -20.0280 1.0247 -6.4394 -18.0648 0.0000 0.0000 0.0000 4.4065 26.1229 -55.7323 -2.1647 -9.2011 26.4265 0.4622 -19.6464 -23.8181 -0.0499 -1.4417 3.9652 -2.7147 -0.8998 -16.4988 0.6032 -0.9488 -13.3511 2.0549 -0.2882 -5.0401 -11.3808 -8.6723 -9.1387 8.0952 -14.5300 41.4079 3.0794 -6.8403 18.8298 0.0000 0.0000 0.0000 -83.0183 4.2512 29.6934 29.1072 -40.1157 -10.8297 -0.0000 0.0000 -9.8104 16.6440 29.3595 8.3386 -7.1250 0.0000 -0.0000 9.5392 -30.1794 -176.5058 0.0000 0.0000 0.0000 82.5037 -26.2336 28.9891 -18.6600 28.9940 -4.8649 0.0000 0.0000 9.0908 -10.0706 -12.1441 2.1397 7.1250 -0.0000 -0.0000 -17.1412 48.1841 178.6156
-2.7945 16.9105 33.4708 362.2720 -8.3111 -330.2120 0.0000 0.0000 0.0000 -25.8565 -14.2962 -31.9498 2.1400 9.1517 26.2711 0.8254 5.5522 -20.0507 1.0509 -6.5188 -18.2975 0.0000 0.0000 0.0000 2.7689 27.5721 -55.5384 -1.9837 -8.8321 25.2715 0.5916 -21.5436 -25.8423 -0.1043 -2.0823 5.7331 -2.7478 -0.9554 -16.5878 0.6167 -1.0186 -13.3867 2.0790 -0.3215 -5.0298 -11.5220 -8.7710 -9.0919 8.1852 -14.6822 41.2364 3.1098 -6.9171 18.7658 -0.0000 0.0000 0.0000 -83.2429 4.4551 29.7529 28.8477 -39.8850 -10.6629 -0.0000 0.0000 -9.5586 16.4671 29.2732 8.2243 -7.1250 0.0000 -0.0000 9.6619 -30.3026 -176.4886 -0.0000 0.0000 0.0000 82.5940 -26.2983 28.9876 -18.6839 29.0240 -4.8765 0.0000 0.0000 9.0595 -9.9706 -12.0810 2.1072 7.1250 -0.0000 -0.0000 -17.2636 48.2541 178.5746
-2.8085 16.9087 33.5718 362.3640 -8.4410 -330.2400 0.0000 0.0000 0.0000 -26.1191 -14.0464 -31.3388 2.0711 9.0126 25.8348 0.8287 5.5838 -20.1040 1.0778 -6.5990 -18.5325 0.0000 0.0000 0.0000 0.9676 29.1553 -55.4071 -1.8338 -8.5110 24.2774 0.6876 -23.4598 -28.3004 -0.1895 -2.8034 7.7319 -2.7752 -1.0122 -16.6877 0.6341 -1.0899 -13.4198 2.1035 -0.3560 -5.0108 -11.6518 -8.8658 -9.0568 8.2589 -14.8243 41.0772 3.1322 -6.9894 18.7080 0.0000 0.0000 0.0000 -83.4856 4.6624 29.7771 28.5542 -39.6214 -10.4752 -0.0000 0.0000 -9.2742 16.2613 29.2240 8.1049 -7.1250 0.0000 -0.0000 9.8045 -30.3945 -176.4573 0.0000 0.0000 0.0000 82.6736 -26.3452 28.9794 -18.7095 29.0561 -4.8889 0.0000 0.0000 9.0272 -9.8789 -12.0200 2.0770 7.1250 -0.0000 -0.0000 -17.3772 48.3223 178.5347
-2.8236 16.9042 33.6737 362.4500 -8.5671 -330.2680 0.0000 0.0000 0.0000 -26.3611 -13.8096 -30.7559 2.0132 8.8935 25.4629 0.8348 5.6195 -20.1879 1.1075 -6.6862 -18.7890 0.0000 0.0000 0.0000 -0.9433 30.8200 -55.3524 -1.7118 -8.2381 23.4396 0.7068 -25.2671 -31.1622 -0.3074 -3.5645 9.8544 -2.7946 -1.0681 -16.7923 0.6558 -1.1609 -13.4584 2.1279 -0.3907 -4.9956 -11.7800 -8.9565 -9.0188 8.3222 -14.9576 40.9296 3.1515 -7.0593 18.6542 0.0000 -0.0000 0.0000 -83.7472 4.8878 29.7715 28.2297 -39.3269 -10.2690 -0.0000 0.0000 -8.9661 16.0449 29.1970 7.9860 -7.1250 0.0000 -0.0000 9.9559 -30.4663 -176.4184 0.0000 -0.0000 0.0000 82.7446 -26.3914 28.9541 -18.7415 29.0963 -4.9045 0.0000 0.0000 8.9994 -9.7908 -11.9698 2.0497 7.1250 -0.0000 -0.0000 -17.4836 48.3781 178.5006
-2.8398 16.8971 33.7767 362.5240 -8.6890 -330.2970 0.0000 0.0000 0.0000 -26.5773 -13.5795 -30.2047 1.9675 8.7981 25.1658 0.8445 5.6572 -20.3064 1.1422 -6.7867 -19.0849 0.0000 0.0000 0.0000 -2.8645 32.4869 -55.3666 -1.6148 -8.0128 22.7530 0.6010 -26.8232 -34.3057 -0.4561 -4.3323 12.0134 -2.7986 -1.1215 -16.8995 0.6823 -1.2302 -13.4982 2.1489 -0.4255 -4.9804 -11.9015 -9.0448 -8.9899 8.3718 -15.0837 40.7932 3.1645 -7.1263 18.6065 -0.0000 -0.0000 0.0000 -84.0249 5.1212 29.7362 27.8715 -38.9976 -10.0427 -0.0000 0.0000 -8.6375 15.8155 29.1829 7.8639 -7.1250 0.0000 -0.0000 10.1163 -30.5279 -176.3742 -0.0000 -0.0000 0.0000 82.8059 -26.4258 28.9174 -18.7767 29.1402 -4.9216 0.0000 0.0000 8.9710 -9.7140 -11.9090 2.0232 7.1250 -0.0000 -0.0000 -17.5819 48.4435 178.4625
-2.8572 16.8877 33.8804 362.5870 -8.8134 -330.3230 0.0000 0.0000 0.0000 -26.7690 -13.3600 -29.6927 1.9339 8.7270 24.9450 0.8575 5.6989 -20.4594 1.1806 -6.8958 -19.4072 0.0000 0.0000 0.0000 -4.6877 34.0623 -55.4378 -1.5395 -7.8327 22.2071 0.3607 -28.0515 -37.4689 -0.6212 -5.0439 14.0338 -2.7927 -1.1707 -17.0030 0.7123 -1.2953 -13.5443 2.1685 -0.4585 -4.9745 -12.0212 -9.1307 -8.9600 8.4133 -15.2037 40.6640 3.1748 -7.1917 18.5610 0.0000 -0.0000 0.0000 -84.3173 5.3697 29.6750 27.4752 -38.6286 -9.7943 -0.0000 0.0000 -8.2704 15.5906 29.1527 7.7405 -7.1250 0.0000 -0.0000 10.2744 -30.6051 -176.3352 0.0000 -0.0000 0.0000 82.8570 -26.4580 28.8713 -18.8168 29.1904 -4.9412 0.0000 0.0000 8.9391 -9.6493 -11.8488 1.9994 7.1250 -0.0000 -0.0000 -17.6680 48.5072 178.4261
-2.8757 16.8757 33.9847 362.6400 -8.9437 -330.3490 0.0000 0.0000 0.0000 -26.9439 -13.1318 -29.2196 1.9115 8.6793 24.7973 0.8746 5.7292 -20.6426 1.2226 -7.0132 -19.7546 0.0000 0.0000 0.0000 -6.2342 35.4105 -55.5236 -1.4837 -7.6958 21.7940 0.0341 -28.9245 -40.2844 -0.7814 -5.6436 15.7539 -2.7800 -1.2167 -17.1027 0.7478 -1.3572 -13.5943 2.1906 -0.4900 -4.9752 -12.1392 -9.2126 -8.9290 8.4473 -15.3154 40.5395 3.1831 -7.2542 18.5158 0.0000 -0.0000 0.0000 -84.6302 5.6329 29.5699 27.0479 -38.2249 -9.5288 -0.0000 0.0000 -7.8652 15.3436 29.1344 7.6090 -7.1250 0.0000 -0.0000 10.4482 -30.6744 -176.2890 0.0000 -0.0000 0.0000 82.8933 -26.4845 28.8266 -18.8614 29.2461 -4.9630 0.0000 0.0000 8.8974 -9.6015 -11.7941 1.9803 7.1250 -0.0000 -0.0000 -17.7349 48.5645 178.3941
-2.8953 16.8618 34.0897 362.6870 -9.0870 -330.3770 0.0000 0.0000 0.0000 -27.1063 -12.8986 -28.7789 1.8989 8.6522 24.7131 0.8948 5.7575 -20.8508 1.2687 -7.1393 -20.1287 0.0000 0.0000 0.0000 -7.2896 36.3746 -55.5625 -1.4452 -7.5997 21.5046 -0.2793 -29.4473 -42.3645 -0.9116 -6.0838 17.0278 -2.7655 -1.2576 -17.1941 0.7848 -1.4131 -13.6513 2.2142 -0.5183 -4.9885 -12.2555 -9.2906 -8.8888 8.4772 -15.4208 40.4171 3.1911 -7.3149 18.4679 -0.0000 0.0000 0.0000 -84.9577 5.9151 29.4202 26.5945 -37.7897 -9.2496 -0.0000 0.0000 -7.4227 15.0644 29.1365 7.4660 -7.1250 0.0000 -0.0000 10.6443 -30.7294 -176.2314 -0.0000 0.0000 0.0000 82.9199 -26.5105 28.7793 -18.9091 29.3056 -4.9863 0.0000 0.0000 8.8480 -9.5660 -11.7448 1.9647 7.1250 -0.0000 -0.0000 -17.7878 48.6152 178.3662
